<?xml version="1.0" standalone="no"?>
<!DOCTYPE svg PUBLIC "-//W3C//DTD SVG 20010904//EN"
 "http://www.w3.org/TR/2001/REC-SVG-20010904/DTD/svg10.dtd">
<svg version="1.0" xmlns="http://www.w3.org/2000/svg"
 width="260.000000pt" height="260.000000pt" viewBox="0 0 260.000000 260.000000"
 preserveAspectRatio="xMidYMid meet">
<metadata>
Created by potrace 1.11, written by Peter Selinger 2001-2013
</metadata>
<g transform="translate(0.000000,260.000000) scale(0.100000,-0.100000)"
fill="#000000" stroke="none">
<path d="M1150 2593 c-14 -2 -61 -11 -105 -20 -536 -105 -953 -545 -1032
-1088 -10 -66 -10 -284 -1 -360 4 -33 15 -87 23 -120 8 -33 18 -70 21 -83 12
-55 80 -209 126 -285 208 -342 528 -557 930 -625 84 -14 348 -7 438 12 268 57
491 177 672 362 200 205 317 436 363 719 13 80 14 330 1 390 -4 17 -11 55 -17
85 -41 208 -166 442 -324 612 -195 207 -456 345 -748 395 -39 6 -313 11 -347
6z m232 -424 c18 -24 19 -49 19 -425 l0 -401 201 -199 c110 -110 207 -214 215
-233 34 -80 -37 -159 -120 -132 -41 14 -471 443 -487 486 -8 20 -11 165 -11
452 0 415 0 424 21 453 40 56 120 55 162 -1z"/>
</g>
</svg>
