<svg width="24" height="24" viewBox="0 0 24 24" fill="none" xmlns="http://www.w3.org/2000/svg">
<path fill-rule="evenodd" clip-rule="evenodd" d="M22 12C22 17.5228 17.5228 22 12 22C6.47715 22 2 17.5228 2 12C2 6.47715 6.47715 2 12 2C17.5228 2 22 6.47715 22 12ZM13.5 6.5C13.5 7.32843 12.8284 8 12 8C11.1716 8 10.5 7.32843 10.5 6.5C10.5 5.67157 11.1716 5 12 5C12.8284 5 13.5 5.67157 13.5 6.5ZM10 9.65C9.53056 9.65 9.15 10.0306 9.15 10.5C9.15 10.9694 9.53056 11.35 10 11.35H11.15V17.5C11.15 17.9694 11.5306 18.35 12 18.35H14C14.4694 18.35 14.85 17.9694 14.85 17.5C14.85 17.0306 14.4694 16.65 14 16.65H12.85V10.5C12.85 10.0306 12.4694 9.65 12 9.65H10Z" fill="black"/>
</svg>
